# xmcd
#
# Track frame offsets:
#        150
#        45633
#        69923
#        84693
#        111808
#        125238
#
# Disc length: 1881 seconds
#
# Revision: 1
# Processed by: cddbd v1.5.1PL0 Copyright (c) Steve Scherf et al.
# Submitted via: ExactAudioCopy v0.95a5
#
DISCID=4f075706
DTITLE=Funkadelic - Free Your Mind
DYEAR=1970
DGENRE=Funk
TTITLE0=Free Your Mind And Your Ass Will Follow
TTITLE1=Friday Night
TTITLE2=Funky Dollar Bill
TTITLE3=I Wanna Know If It's Good To You
TTITLE4=Somme More
TTITLE5=Eulogy And Light
EXTD=
EXTT0=
EXTT1=
EXTT2=
EXTT3=
EXTT4=
EXTT5=
PLAYORDER=
